<?xml version="1.0" encoding="UTF-8"?>
<svg width="24px" height="24px" viewBox="0 0 24 24" version="1.1" xmlns="http://www.w3.org/2000/svg" xmlns:xlink="http://www.w3.org/1999/xlink">
    <title>矩形</title>
    <g id="页面-2" stroke="none" stroke-width="1" fill="none" fill-rule="evenodd">
        <g id="内容页-列表备份-4" transform="translate(-12.000000, -16.000000)">
            <g id="ico_logo备份" transform="translate(12.000000, 16.000000)">
                <rect id="矩形" x="0" y="0" width="24" height="24"></rect>
                <path d="M10.04205,1.98923467 C10.04205,0.890428757 10.9413381,0 12.0509597,0 C13.1600816,0 14.0593697,0.890428757 14.0593697,1.98923467 C14.0593697,3.08853554 13.1600816,3.9789643 12.0509597,3.9789643 C10.9413381,3.9789643 10.04205,3.08853554 10.04205,1.98923467 L10.04205,1.98923467 Z M1.95944877,9.7764029 C0.843332362,9.7764029 0,8.86865062 0,7.83567407 C0,6.74726227 0.860818519,5.89445029 1.95944877,5.89445029 L22.0790208,5.89445029 C23.1581665,5.89445029 24,6.76508074 24,7.83567407 C24,8.85033719 23.1736542,9.7764029 22.077522,9.7764029 L13.9594488,9.7764029 L13.9594488,22.0587762 C13.9594488,23.1645115 13.0431742,24 12,24 C10.9013697,24 10.0400516,23.1466931 10.0400516,22.0587762 L10.0400516,9.7764029 L1.95944877,9.7764029 Z" id="形状结合" fill="#0244AC"></path>
            </g>
        </g>
    </g>
</svg>